<svg width="35" height="35" viewBox="0 0 35 35" fill="none" xmlns="http://www.w3.org/2000/svg">
<path d="M16.6565 33.0987C11.1042 26.625 6.92661 19.277 6.09688 14.5258C5.83344 13.017 5.91744 10.8106 6.28844 9.49327C6.87003 7.42838 8.09911 5.43233 9.68333 3.97995C14.9207 -0.821932 23.2556 0.206484 27.1474 6.13455C29.0591 9.04655 29.5382 12.3621 28.5701 15.9795C27.3689 20.4677 23.4085 27.083 18.3942 32.9758L17.4764 34.0546L16.6565 33.0987ZM19.4606 20.4258C22.3242 19.6933 24.4594 17.6376 25.3333 14.772C25.7421 13.4312 25.7183 11.5291 25.2756 10.1684C23.8734 5.8584 19.5909 3.54548 15.1903 4.72148C13.2421 5.24217 11.1746 6.9777 10.2371 8.87948C8.99266 11.4041 9.08576 14.3346 10.486 16.7127C11.0939 17.7453 12.5755 19.1668 13.6159 19.716C15.384 20.6491 17.556 20.9128 19.4606 20.4258ZM15.8992 18.757C14.9992 18.5145 13.9363 17.9536 13.2908 17.3804L12.7416 16.8927L13.8378 15.6176C14.4409 14.9162 15.5442 13.7315 16.2898 12.9851C17.5897 11.6838 19.3812 10.1442 19.4799 10.2437C19.5058 10.2698 19.6989 10.5077 19.909 10.7723L20.291 11.2534L19.988 11.5703C19.4816 12.0997 19.0942 13.1468 18.69 15.0789C18.258 17.1444 17.7999 18.2843 17.2431 18.6809C16.8146 18.9861 16.7613 18.9891 15.8992 18.757ZM17.4614 18.8715C17.4614 18.8306 17.5952 18.6381 17.7588 18.4437C18.1904 17.9307 18.5333 16.9249 19.0091 14.7759C19.6269 11.985 20.0744 11.2271 20.7385 11.8459C21.1154 12.197 21.7838 13.4953 22.0512 14.3955C22.2981 15.2272 22.3064 16.392 22.0685 16.8519C21.844 17.2861 20.8929 17.994 20.0088 18.385C19.1355 18.7712 17.4614 19.091 17.4614 18.8715ZM12.2038 16.1322C11.7003 15.4369 11.3371 14.439 11.1697 13.2898C11.0452 12.4358 11.0544 12.3179 11.2759 11.9365C11.6404 11.3094 12.6402 10.7729 14.0105 10.4692C16.3336 9.95433 17.1625 9.71855 17.6976 9.4207L18.2407 9.1183L18.6507 9.51567C18.8762 9.73418 19.0461 9.94768 19.0282 9.99027C19.0105 10.0328 18.289 10.7173 17.425 11.5115C16.107 12.7229 14.8307 14.0723 12.9058 16.2897L12.5854 16.6588L12.2038 16.1322ZM22.4619 15.7946C22.5366 14.7286 22.2305 13.7565 21.3743 12.3404C20.6907 11.2099 20.7013 11.0376 21.4634 10.8946C22.0415 10.7862 22.6358 10.9188 23.1574 11.2728C23.6507 11.6076 23.7483 11.5169 23.3232 11.1187C22.7418 10.5741 22.0179 10.471 21.059 10.7967L20.4742 10.9952L20.0716 10.5295L19.6689 10.0638L19.9355 9.78003C20.2565 9.43843 21.9336 8.26558 22.1011 8.26558C22.4962 8.26558 23.619 10.4452 23.6542 11.2806C23.6668 11.5781 23.7148 11.8593 23.761 11.9055C23.905 12.0494 23.8496 13.2024 23.6599 14.0071C23.482 14.7616 23.1087 15.5948 22.6393 16.2856L22.4031 16.6329L22.4619 15.7946ZM11.2356 11.2517C11.4945 9.95737 12.4798 8.34293 13.4392 7.64142C13.9253 7.28593 14.0159 7.2633 14.7073 7.32572C15.9141 7.43457 17.4078 8.0942 17.7568 8.67228C17.8655 8.85253 17.8363 8.93968 17.6032 9.13102C17.2739 9.40122 16.9078 9.511 14.7188 9.99575C12.9927 10.378 11.9955 10.774 11.4919 11.2777L11.165 11.6046L11.2356 11.2517ZM18.9061 9.27837L18.4595 8.81812L18.7529 8.48002C19.184 7.98337 19.2584 7.39012 18.9642 6.79547L18.7215 6.305L19.0428 6.3743C19.5614 6.48618 21.0477 7.2409 21.5018 7.62298L21.9207 7.97532L21.4404 8.26488C21.1763 8.42402 20.6159 8.8208 20.1955 9.14653C19.7749 9.47227 19.4132 9.73873 19.3917 9.73873C19.3702 9.73873 19.1516 9.53165 18.9061 9.27837ZM17.341 8.0123C16.4096 7.43807 15.5743 7.16472 14.7077 7.15072L14.0854 7.1408L14.8248 6.78462C15.6746 6.37523 16.5735 6.17865 17.5961 6.17865C18.4254 6.17865 18.7546 6.42482 18.89 7.14582C18.9813 7.63267 18.6415 8.42612 18.3207 8.47488C18.2195 8.49028 17.7786 8.28215 17.341 8.0123Z" fill="#242628"/>
</svg>
