<svg width="24" height="35" viewBox="0 0 24 35" fill="none" xmlns="http://www.w3.org/2000/svg">
<g clip-path="url(#clip0_349_271)">
<path d="M9.6955 0.105679C6.43259 0.64639 2.96458 3.16349 1.43568 6.07214C0.615291 7.63833 0 9.87576 0 11.2928C0 14.9286 2.96458 21.5476 9.04292 31.4482C10.9634 34.6179 11.3922 35.14 11.821 34.9722C12.5109 34.7111 16.8925 27.3649 19.7639 21.6968C22.9709 15.3388 23.754 12.4115 23.0268 9.22318C22.02 4.63646 18.3469 1.00065 13.9093 0.18026C12.8279 -0.024837 10.665 -0.0621273 9.6955 0.105679ZM14.4687 3.55504C15.9603 4.13304 17.5265 5.62465 18.3096 7.2095C18.6452 7.61969 19.0181 8.38414 19.0181 10.23C19.0181 12.0759 18.8876 12.4674 18.3096 13.6234C16.4637 17.3711 12.0448 18.8814 8.3344 16.9982C4.47484 15.0591 3.11375 10.1181 5.44439 6.46369C7.3462 3.46181 11.0752 2.24988 14.4687 3.55504Z" fill="#252422"/>
<path d="M11.56 18.6452C15.9879 18.6452 19.5775 14.847 19.5775 10.1616C19.5775 5.47629 15.9879 1.67807 11.56 1.67807C7.13213 1.67807 3.5426 5.47629 3.5426 10.1616C3.5426 14.847 7.13213 18.6452 11.56 18.6452Z" fill="#252422"/>
<path d="M10.6442 1.88894C10.5006 1.90945 10.1111 1.98124 9.7727 2.04258C5.46678 2.81076 2.23743 6.71245 2.23743 11.1366C2.23743 15.5096 5.14906 19.2372 9.3627 20.2716C10.6544 20.5891 12.4792 20.5891 13.771 20.2716C17.2875 19.4113 20.0248 16.5541 20.7527 13.0005C20.8757 12.3452 20.9065 11.8227 20.8655 10.8498C20.7629 8.24863 19.8916 6.30282 18.0359 4.49032C16.3136 2.82102 14.3453 1.98124 11.8744 1.87887C11.3413 1.85836 10.7877 1.85836 10.6442 1.88894ZM14.0068 3.44563C15.3601 3.88603 16.2726 4.45955 17.3593 5.55533C18.1282 6.32333 18.3743 6.65111 18.7741 7.46012C19.4302 8.78114 19.6763 9.78481 19.6763 11.1981C19.6865 12.5601 19.4507 13.5843 18.8458 14.7825C18.4461 15.6017 17.7694 16.5746 17.5541 16.6462C17.4926 16.6667 17.267 16.421 17.0415 16.0932C16.2418 14.9258 14.6937 13.9222 13.1354 13.5536C11.9564 13.2668 10.3468 13.3794 9.16785 13.8096C8.01968 14.2397 6.84056 15.1 6.16392 16.0216C5.88723 16.38 5.64111 16.677 5.58984 16.677C5.44627 16.677 4.56472 15.3866 4.22631 14.6801C3.69325 13.5843 3.46764 12.5294 3.46764 11.2289C3.46764 9.7643 3.67274 8.87343 4.31861 7.56249C4.76963 6.6306 4.96448 6.36435 5.77442 5.55533C7.55821 3.76316 9.37295 3.02574 11.8231 3.09752C12.8484 3.1281 13.2072 3.18963 14.0068 3.44563Z" fill="#DE9E36"/>
<path d="M10.7775 4.69505C9.91629 4.87945 9.06532 5.42221 8.54251 6.12886C7.13797 8.03365 7.79409 10.7577 9.89578 11.8227C10.4391 12.0992 10.5827 12.1197 11.5669 12.1197C12.4587 12.1197 12.7254 12.0787 13.1354 11.8945C13.853 11.5565 14.663 10.7372 15.0116 9.98972C15.2781 9.43671 15.3089 9.24205 15.3089 8.38176C15.3089 7.5114 15.2781 7.34751 15.0116 6.80475C14.2427 5.24806 12.4382 4.34694 10.7775 4.69505Z" fill="#DE9E36"/>
</g>
<defs>
<clipPath id="clip0_349_271">
<rect width="23.278" height="35" fill="white"/>
</clipPath>
</defs>
</svg>
