<svg xmlns="http://www.w3.org/2000/svg" width="200" height="200" fill="none"><path stroke="#F5F6F6" stroke-width="2" d="M117.787 99.693c-.507.458-.923 1.049-1.247 1.774M101.767 120.433l-.847 1.067a1.1 1.1 0 0 1-1.68.04l-1.28-1.433M73.347 85.207l-1.334-2.634"/><path stroke="#DE9E36" stroke-width="2" d="M102.627 34.72a.893.893 0 0 0-.634-.367c-5.04-.622-9.542.243-13.506 2.594-.542.32-.498.469.133.446 4.373-.169 8.416 1.245 12.127 4.24.246.199.557.3.874.284.317-.016.618-.148.846-.37 2.035-1.982 2.089-4.258.16-6.827Z"/><path stroke="#DE9E36" stroke-width="2" d="M103.58 34.953c1.693 2.974 1.633 5.554-1.18 8-.053.05-.056.1-.007.154a65.224 65.224 0 0 0 3.14 2.96.208.208 0 0 0 .28 0c2.565-2.303 5.196-4.171 7.894-5.607.262-.142.284-.313.066-.513-2.933-2.685-6.249-4.458-9.946-5.32-.334-.076-.416.033-.247.326ZM80.233 45.647a19.52 19.52 0 0 0-2.073 6.286c-.067.436.031.476.293.12 2.147-2.9 6.52-4.16 10.094-4.853 3.444-.662 6.63-1.424 9.56-2.287a4.773 4.773 0 0 0 1.886-1.06 1.27 1.27 0 0 0 .29-1.498 1.249 1.249 0 0 0-.336-.422c-2.28-1.857-5.116-3.142-8.507-3.853-.987-.207-1.987 0-2.953-.22-2.787-.64-7.1 5.6-8.254 7.787ZM120.2 52.08c-.807-4.113-2.393-7.7-5.193-10.867a.605.605 0 0 0-.78-.113c-2.409 1.511-4.863 3.304-7.36 5.38-.356.293-.389.618-.1.973l2.073 2.594c.262.324.571.378.927.16 2.853-1.734 7.166-1.88 9.22.88.297.4.613.777.946 1.133.245.262.334.216.267-.14Z"/><path stroke="#DE9E36" stroke-width="2" d="M78.187 53.773a2.638 2.638 0 0 0-.274 1.054c-.217 5.133 1.31 9.806 4.58 14.02.227.289.456.289.687 0A158.792 158.792 0 0 1 104.6 46.88c.076-.062.078-.129.007-.2l-2.72-2.733c-.094-.098-.198-.11-.314-.034-4.32 2.96-9.793 3.567-14.9 4.707-3.193.713-6.94 2.08-8.486 5.153Z"/><path stroke="#DE9E36" stroke-width="2" d="M83.627 70.213c3.586 3.62 8.126 6.04 13.193 6.487.236.022.453-.031.653-.16 2.82-1.887 4.087-4.92 4.68-7.707.72-3.377 1.418-6.575 2.094-9.593.5-2.233 1.953-6.467 3.9-7.693.337-.214.382-.478.133-.794l-2.213-2.8c-.2-.257-.432-.289-.694-.093C97.187 54 90.207 61.713 83.6 69.667a.4.4 0 0 0 .027.546ZM110.58 52.133c3.313 5.08 6.293 10.24 4.973 16.54-.08.383.003.42.247.114 3.058-3.84 4.609-8.38 4.653-13.62.009-1.138-.353-2.111-1.086-2.92-2.249-2.476-4.954-3.17-8.114-2.08a1.325 1.325 0 0 0-.879 1.41c.026.2.096.39.206.556Z"/><path stroke="#DE9E36" stroke-width="2" d="M102.967 68.467c-.587 2.54-1.767 6.093-3.9 7.766-.298.236-.258.37.12.4 4.953.414 10.22-2.053 14.113-5.273 4.533-3.747.027-15.507-3.713-18.933a.774.774 0 0 0-.694-.18c-2.06.486-3.093 3.786-3.493 5.553a4016.94 4016.94 0 0 1-2.433 10.667Z"/><path fill="#F5F6F6" d="m119.12 97.607-1.333 2.086c-.507.458-.923 1.049-1.247 1.774a195.023 195.023 0 0 1-14.773 18.966l-.847 1.067a1.1 1.1 0 0 1-1.68.04l-1.28-1.433a43.076 43.076 0 0 1-4.173-5.114 13.916 13.916 0 0 0-1.8-2.12 10.717 10.717 0 0 1-1.767-2.213 45.417 45.417 0 0 0-1.98-3.02.324.324 0 0 0-.153-.113.738.738 0 0 1-.327-.22 165.08 165.08 0 0 1-14.413-22.1l-1.334-2.634-2.026-3.766a151.743 151.743 0 0 1-3.854-9.62c-2.413-6.703-3.257-13.32-2.533-19.854 1.16-10.386 7.6-20.006 16.593-25.973 9.794-6.5 22.827-7.52 33.58-3.2 5.951 2.396 10.956 6.122 15.014 11.18 4.886 6.087 8.033 14.173 7.913 22.073-.033 2.12.08 4.207-.287 6.334-.942 5.475-2.606 10.822-4.993 16.04-3.276 7.173-7.376 14.446-12.3 21.82Zm7.487-42.1a27.332 27.332 0 0 0-8.004-19.323 27.329 27.329 0 0 0-46.65 19.323 27.327 27.327 0 0 0 54.654 0Z"/><path fill="#242628" d="M126.607 55.507a27.332 27.332 0 0 1-8.004 19.323 27.335 27.335 0 0 1-19.323 8.003 27.327 27.327 0 1 1 27.327-27.326Zm-23.98-20.787a.893.893 0 0 0-.634-.367c-5.04-.622-9.542.243-13.506 2.594-.542.32-.498.469.133.446 4.373-.169 8.416 1.245 12.127 4.24.246.199.557.3.874.284.317-.016.618-.148.846-.37 2.035-1.982 2.089-4.258.16-6.827Zm.953.233c1.693 2.974 1.633 5.554-1.18 8-.053.05-.056.1-.007.154a65.224 65.224 0 0 0 3.14 2.96.208.208 0 0 0 .28 0c2.565-2.303 5.196-4.171 7.894-5.607.262-.142.284-.313.066-.513-2.933-2.685-6.249-4.458-9.946-5.32-.334-.076-.416.033-.247.326ZM80.233 45.647a19.521 19.521 0 0 0-2.073 6.286c-.067.436.031.476.293.12 2.147-2.9 6.52-4.16 10.094-4.853 3.444-.662 6.63-1.424 9.56-2.287a4.773 4.773 0 0 0 1.886-1.06 1.27 1.27 0 0 0 .291-1.498 1.267 1.267 0 0 0-.337-.422c-2.28-1.857-5.116-3.142-8.507-3.853-.987-.207-1.987 0-2.953-.22-2.787-.64-7.1 5.6-8.254 7.787ZM120.2 52.08c-.807-4.113-2.393-7.7-5.193-10.867a.605.605 0 0 0-.78-.113c-2.409 1.511-4.863 3.304-7.36 5.38-.356.293-.389.618-.1.973l2.073 2.594c.262.324.571.378.927.16 2.853-1.734 7.166-1.88 9.22.88.297.4.613.777.946 1.133.245.262.334.216.267-.14Zm-42.013 1.693a2.636 2.636 0 0 0-.274 1.054c-.217 5.133 1.31 9.806 4.58 14.02.227.289.456.289.687 0A158.798 158.798 0 0 1 104.6 46.88c.076-.062.078-.129.007-.2l-2.72-2.733c-.094-.098-.198-.11-.314-.034-4.32 2.96-9.793 3.567-14.9 4.707-3.193.713-6.94 2.08-8.486 5.153Zm5.44 16.44c3.586 3.62 8.126 6.04 13.193 6.487.236.022.453-.031.653-.16 2.82-1.887 4.087-4.92 4.68-7.707.72-3.377 1.418-6.575 2.094-9.593.5-2.233 1.953-6.467 3.9-7.693.337-.214.382-.478.133-.794l-2.213-2.8c-.2-.257-.431-.289-.694-.093C97.187 54 90.207 61.713 83.6 69.667a.4.4 0 0 0 .027.546Zm26.953-18.08c3.313 5.08 6.293 10.24 4.973 16.54-.08.383.003.42.247.114 3.058-3.84 4.609-8.38 4.653-13.62.009-1.138-.353-2.111-1.086-2.92-2.249-2.476-4.954-3.17-8.114-2.08a1.327 1.327 0 0 0-.818.82 1.314 1.314 0 0 0 .145 1.146Zm-7.613 16.334c-.587 2.54-1.767 6.093-3.9 7.766-.298.236-.258.37.12.4 4.953.414 10.22-2.053 14.113-5.273 4.533-3.747.027-15.507-3.713-18.933a.766.766 0 0 0-.694-.18c-2.06.486-3.093 3.786-3.493 5.553a4016.94 4016.94 0 0 1-2.433 10.667Z"/><path fill="#DE9E36" d="M102.627 34.72c1.929 2.569 1.875 4.844-.16 6.827a1.306 1.306 0 0 1-.846.37 1.287 1.287 0 0 1-.874-.284c-3.711-2.995-7.754-4.409-12.127-4.24-.631.023-.675-.126-.133-.446 3.964-2.352 8.466-3.216 13.506-2.594a.893.893 0 0 1 .634.367Z"/><path fill="#DE9E36" d="M102.4 42.953c2.813-2.446 2.873-5.026 1.18-8-.169-.293-.087-.402.247-.326 3.697.862 7.013 2.635 9.946 5.32.218.2.196.37-.066.513-2.698 1.435-5.329 3.304-7.894 5.607a.206.206 0 0 1-.28 0 65.224 65.224 0 0 1-3.14-2.96c-.049-.054-.046-.105.007-.154ZM80.233 45.647c1.154-2.187 5.467-8.427 8.254-7.787.966.22 1.966.013 2.953.22 3.391.711 6.227 1.996 8.507 3.853a1.258 1.258 0 0 1 .362 1.479 1.27 1.27 0 0 1-.316.441 4.773 4.773 0 0 1-1.886 1.06c-2.93.863-6.116 1.625-9.56 2.287-3.574.693-7.947 1.953-10.094 4.853-.262.356-.36.316-.293-.12a19.523 19.523 0 0 1 2.073-6.286ZM115.007 41.213c2.8 3.167 4.386 6.754 5.193 10.867.067.356-.022.402-.267.14a12.947 12.947 0 0 1-.946-1.133c-2.054-2.76-6.367-2.614-9.22-.88-.356.218-.665.164-.927-.16l-2.073-2.594c-.289-.355-.256-.68.1-.973 2.497-2.075 4.951-3.869 7.36-5.38a.615.615 0 0 1 .78.113Z"/><path fill="#DE9E36" d="M78.187 53.773c1.546-3.073 5.293-4.44 8.486-5.153 5.107-1.14 10.58-1.747 14.9-4.707.116-.075.22-.064.314.034l2.72 2.733c.071.071.069.138-.007.2a158.786 158.786 0 0 0-21.42 21.967c-.231.288-.46.288-.687 0-3.27-4.214-4.797-8.887-4.58-14.02.018-.37.111-.728.274-1.054Z"/><path fill="#DE9E36" d="M96.82 76.7c-5.067-.447-9.607-2.867-13.193-6.487a.4.4 0 0 1-.027-.546C90.207 61.713 97.187 54 105.373 47.86c.263-.196.494-.164.694.093l2.213 2.8c.249.316.204.58-.133.794-1.947 1.226-3.4 5.46-3.9 7.693a949.973 949.973 0 0 0-2.094 9.593c-.593 2.787-1.86 5.82-4.68 7.707-.2.129-.417.182-.653.16ZM115.553 68.673c1.32-6.3-1.66-11.46-4.973-16.54a1.314 1.314 0 0 1 .169-1.65c.142-.142.314-.25.504-.316 3.16-1.09 5.865-.396 8.114 2.08.733.809 1.095 1.782 1.086 2.92-.044 5.24-1.595 9.78-4.653 13.62-.244.306-.327.269-.247-.114Z"/><path fill="#DE9E36" d="M99.067 76.233c2.133-1.673 3.313-5.226 3.9-7.766.809-3.525 1.62-7.08 2.433-10.667.4-1.767 1.433-5.067 3.493-5.553a.766.766 0 0 1 .694.18c3.74 3.426 8.246 15.186 3.713 18.933-3.893 3.22-9.16 5.687-14.113 5.273-.378-.03-.418-.164-.12-.4Z"/><path fill="#242628" d="m69.987 78.807 2.026 3.766c-.897 1.494-2.642 2.73-5.233 3.707-.218.084-.402.04-.553-.133l-2.96-3.28 6.72-4.06Z"/><path fill="#DE9E36" d="m72.013 82.573 1.334 2.634-5.187 2.613c-.213.111-.238.256-.073.433 4.426 4.823 8.846 9.576 13.26 14.26 2.146 2.28 3.066 5.02.666 7.534-3.569 3.742-8.009 5.504-13.32 5.286-1.866-.075-3.484-.595-4.853-1.56a3590.16 3590.16 0 0 1-18.86-13.366.578.578 0 0 0-.653-.047L24.28 110.947a.192.192 0 0 0-.095.243.2.2 0 0 0 .055.077l42.38 37.92a.383.383 0 0 0 .427.053l18.44-9.76a.354.354 0 0 0 .1-.547C78.5 130.98 84.5 122.347 93.5 120.86c1.453-.24 2.94-.491 4.46-.753l1.28 1.433a1.098 1.098 0 0 0 1.68-.04l.847-1.067c3.897.925 7.371 2.449 10.42 4.574.2.137.406.151.62.04l18.706-9.894a.22.22 0 0 0 .107-.272.223.223 0 0 0-.06-.088l-15.02-13.326c.324-.725.74-1.316 1.247-1.774l15.586 14.027a.517.517 0 0 0 .567.107c.769-.289 1.387-.649 1.853-1.08.867-.28 1.438.186 1.714 1.4-.6.515-1.238.911-1.914 1.186a.183.183 0 0 0-.081.059.196.196 0 0 0-.043.092.208.208 0 0 0 .064.189l42.954 38.467a.99.99 0 0 1-.2 1.613l-21.207 11.2a.305.305 0 0 0-.114.106.307.307 0 0 0-.023.3.309.309 0 0 0 .097.121l3.573 2.633c.245 1.271-.324 1.643-1.706 1.114l-3.86-2.84a.54.54 0 0 0-.574-.04l-18.98 10.006c-.169.089-.189.207-.06.354l3.114 3.486c-.231.991-.876 1.347-1.934 1.067l-3.033-3.5c-.151-.178-.331-.211-.54-.1l-21.727 11.48a.866.866 0 0 1-.98-.12l-43.46-38.92a.54.54 0 0 0-.573-.127c-.951.311-1.733.698-2.347 1.16-.99.543-1.509.089-1.553-1.36l2.167-1.286c.209-.12.222-.26.04-.42L21.9 111.813c-.858-.769-.778-1.424.24-1.966l20.4-10.774a.234.234 0 0 0 .12-.185.218.218 0 0 0-.093-.195 96.545 96.545 0 0 1-3.08-2.18c-.236-.173-.307-.52-.214-1.04 0-.164.025-.31.074-.44a.555.555 0 0 1 .473-.38c.32-.04.58.034.78.22l4.027 2.72a.601.601 0 0 0 .653.04l18.893-10c.227-.12.256-.273.087-.46l-2.96-3.246c-.058-.69.196-1.087.76-1.194.822-.164 1.224-.12 1.207.134l2.96 3.28c.15.173.335.218.553.133 2.591-.978 4.335-2.213 5.233-3.707Zm-25.046 16.38a.234.234 0 0 0-.027.4l16.653 11.814a.24.24 0 0 0 .122.042.238.238 0 0 0 .125-.029l15.06-7.947a.228.228 0 0 0 .117-.165.233.233 0 0 0-.057-.195L66.147 89.04a.233.233 0 0 0-.28-.047l-18.9 9.96Zm33.38 5.767-14.007 7.42c-.684.364-.665.627.06.787 5.147 1.164 9.747-.107 13.8-3.814 1.373-1.253 1.571-2.675.593-4.266a.342.342 0 0 0-.446-.127Zm36.053 25.573c2.56 5.98-.427 11.134-5.907 13.627-7.04 3.2-16.706 1.873-22.673-2.993a.556.556 0 0 0-.653-.067l-18.547 9.773a.196.196 0 0 0-.091.238c.01.029.028.055.051.076l42.32 37.86c.147.133.309.153.487.06l20.306-10.727a.304.304 0 0 0 .099-.086.301.301 0 0 0 .051-.121.276.276 0 0 0-.007-.131.282.282 0 0 0-.063-.115 1029.217 1029.217 0 0 0-13.42-14.94c-2.893-3.167-.92-7.08 2.1-9.107 4.467-3 11.274-5.18 16.034-1.62 6.111 4.578 12.149 9.102 18.113 13.573a.7.7 0 0 0 .747.06l20.373-10.773a.322.322 0 0 0 .167-.242.316.316 0 0 0-.1-.271L133.76 116.76c-.227-.2-.476-.231-.747-.093l-18.78 9.913a.28.28 0 0 0-.066.453c.969.96 1.713 2.047 2.233 3.26Zm-23.873 5.28c-1.914-2.633-1.347-6.033 1.46-7.626 3.106-1.76 8.006-1.907 11.24.473.333.249.684.276 1.053.08l3.66-1.933c.347-.187.358-.389.033-.607-2.604-1.787-5.542-2.893-8.813-3.32-4.527-.587-8.907-.193-12.76 2.28-5.16 3.3-4.907 9.127-.827 13.24a.241.241 0 0 0 .14.072c.052.009.106 0 .154-.025l4.606-2.427c.098-.049.116-.118.054-.207Zm-2.754 4.38c6.407 4.5 17.227 5.494 23.187-.073 3.833-3.58 2.7-8.727-.653-12.073-.098-.098-.209-.114-.334-.047l-4.513 2.4c-.116.062-.136.149-.06.26 1.307 1.929 1.491 3.74.553 5.433-2.56 4.614-9.586 4.16-13.486 1.594a.666.666 0 0 0-.734-.04l-3.926 2.04c-.285.151-.296.32-.034.506Zm16.684-5.834c.194-1.122-.307-2.317-1.392-3.321-1.085-1.005-2.666-1.737-4.394-2.035-1.729-.299-3.463-.139-4.822.443-1.36.582-2.232 1.54-2.426 2.662-.194 1.122.307 2.316 1.392 3.321 1.085 1.004 2.666 1.736 4.394 2.035 1.729.299 3.463.139 4.822-.443 1.359-.582 2.232-1.54 2.426-2.662ZM120.64 160.6l13.56-7.207c.329-.173.322-.333-.02-.48-4.38-1.926-9.96.247-13.573 3.074-1.054.822-1.607 1.9-1.66 3.233l-.014.3c-.057 1.356.511 1.716 1.707 1.08Zm32.047 6.433a.221.221 0 0 0 .083-.075.221.221 0 0 0 .037-.106.232.232 0 0 0-.087-.199l-16.193-12.073a.219.219 0 0 0-.117-.044.217.217 0 0 0-.123.024l-15.054 7.967a.225.225 0 0 0-.107.258.22.22 0 0 0 .047.088l12.567 13.994a.222.222 0 0 0 .127.073c.05.01.101.003.146-.02l18.674-9.887Z"/><path fill="#242628" d="m61.3 83.927 2.96 3.246c.169.187.14.34-.087.46l-18.893 10a.601.601 0 0 1-.653-.04l-4.027-2.72c.124.01.231.016.32.02a.57.57 0 0 0 .293-.066 396.79 396.79 0 0 0 20.087-10.9ZM73.347 85.207a165.09 165.09 0 0 0 14.413 22.1.739.739 0 0 0 .327.22c.062.022.113.06.153.113a45.496 45.496 0 0 1 1.98 3.02 10.72 10.72 0 0 0 1.767 2.213 13.905 13.905 0 0 1 1.8 2.12 43.087 43.087 0 0 0 4.173 5.114c-1.52.262-3.007.513-4.46.753-9 1.487-15 10.12-7.913 18.073a.351.351 0 0 1 .082.298.357.357 0 0 1-.182.249l-18.44 9.76a.378.378 0 0 1-.427-.053l-42.38-37.92a.194.194 0 0 1 .04-.32l20.047-10.587a.578.578 0 0 1 .653.047 3590.16 3590.16 0 0 0 18.86 13.366c1.369.965 2.987 1.485 4.853 1.56 5.311.218 9.751-1.544 13.32-5.286 2.4-2.514 1.48-5.254-.666-7.534a1499.314 1499.314 0 0 1-13.26-14.26c-.165-.177-.14-.322.073-.433l5.187-2.613Z"/><path fill="#242628" d="m46.967 98.953 18.9-9.96a.234.234 0 0 1 .28.047l12.813 13.833a.232.232 0 0 1 .057.195.228.228 0 0 1-.117.165l-15.06 7.947a.238.238 0 0 1-.125.029.24.24 0 0 1-.122-.042L46.94 99.353a.234.234 0 0 1 .027-.4ZM39.273 95.473c-.093.52-.022.867.214 1.04a96.432 96.432 0 0 0 3.08 2.18.213.213 0 0 1 .093.195.227.227 0 0 1-.12.185l-20.4 10.774c-1.018.542-1.098 1.197-.24 1.966l42.707 38.254c.182.16.169.3-.04.42l-2.167 1.286c-1.324-1.373-2.7-2.72-4.127-4.04A2932.768 2932.768 0 0 0 38.98 130.08a389.682 389.682 0 0 0-10.053-8.78 494.103 494.103 0 0 1-13.58-11.873c-.218-.2-.238-.42-.06-.66a4.083 4.083 0 0 1 1.473-1.234c7.436-3.786 14.833-7.64 22.193-11.56.09-.044.196-.21.32-.5ZM119.12 97.607l16.673 15.14c-.466.431-1.084.791-1.853 1.08a.517.517 0 0 1-.567-.107l-15.586-14.027 1.333-2.086ZM116.54 101.467l15.02 13.326a.219.219 0 0 1 .071.193.214.214 0 0 1-.118.167l-18.706 9.894a.565.565 0 0 1-.62-.04c-3.049-2.125-6.523-3.649-10.42-4.574a195.178 195.178 0 0 0 14.773-18.966ZM66.34 112.14l14.007-7.42a.342.342 0 0 1 .447.127c.977 1.591.78 3.013-.594 4.266-4.053 3.707-8.653 4.978-13.8 3.814-.725-.16-.745-.423-.06-.787ZM137.507 114.147a551.44 551.44 0 0 0 15.16 14.013 6061.727 6061.727 0 0 1 26.833 24.053 113.165 113.165 0 0 0 4.553 3.907c.183.147.336.338.46.573.227.436.123.769-.313 1l-23.587 12.42-3.573-2.633a.318.318 0 0 1-.124-.274.307.307 0 0 1 .05-.147.305.305 0 0 1 .114-.106l21.207-11.2a.978.978 0 0 0 .521-.751.99.99 0 0 0-.321-.862l-42.954-38.467a.208.208 0 0 1-.064-.189.196.196 0 0 1 .043-.092.183.183 0 0 1 .081-.059 6.968 6.968 0 0 0 1.914-1.186Z"/><path fill="#242628" d="M116.4 130.293a10.233 10.233 0 0 0-2.233-3.26.286.286 0 0 1-.085-.244.294.294 0 0 1 .05-.123.288.288 0 0 1 .101-.086l18.78-9.913c.272-.138.52-.107.747.093l42.027 37.607a.316.316 0 0 1-.067.513l-20.373 10.773a.703.703 0 0 1-.747-.06c-5.964-4.471-12.002-8.995-18.113-13.573-4.76-3.56-11.567-1.38-16.034 1.62-3.02 2.027-4.993 5.94-2.1 9.107 4.392 4.791 8.865 9.771 13.42 14.94a.29.29 0 0 1 .07.246.301.301 0 0 1-.051.121.304.304 0 0 1-.099.086l-20.306 10.727c-.178.093-.34.073-.487-.06l-42.32-37.86a.194.194 0 0 1 .04-.314l18.547-9.773a.556.556 0 0 1 .653.067c5.967 4.866 15.633 6.193 22.673 2.993 5.48-2.493 8.467-7.647 5.907-13.627ZM93.987 127.947c-2.807 1.593-3.374 4.993-1.46 7.626.062.089.044.158-.054.207l-4.606 2.427c-.048.025-.102.034-.155.025a.241.241 0 0 1-.139-.072c-4.08-4.113-4.333-9.94.827-13.24 3.853-2.473 8.233-2.867 12.76-2.28 3.271.427 6.209 1.533 8.813 3.32.325.218.314.42-.033.607l-3.66 1.933c-.369.196-.72.169-1.053-.08-3.234-2.38-8.134-2.233-11.24-.473Z"/><path fill="#242628" d="M112.96 139.88c-5.96 5.567-16.78 4.573-23.187.073-.262-.186-.25-.355.034-.506l3.926-2.04a.666.666 0 0 1 .734.04c3.9 2.566 10.926 3.02 13.486-1.594.938-1.693.754-3.504-.553-5.433-.075-.111-.056-.198.06-.26l4.513-2.4c.125-.067.236-.051.334.047 3.353 3.346 4.486 8.493.653 12.073Z"/><path fill="#242628" d="M99.21 137.224c3.598.622 6.843-.769 7.247-3.105.403-2.337-2.187-4.735-5.786-5.356-3.6-.622-6.844.768-7.248 3.105-.403 2.336 2.187 4.734 5.786 5.356ZM136.613 183.26a21.43 21.43 0 0 0-2.98 1.193 1756.987 1756.987 0 0 0-16.453 8.307c-1.293.662-2.589 1.34-3.887 2.033-1.173.627-2.16.114-3.086-.66a151.247 151.247 0 0 1-8.56-7.686c-5.954-5.767-11.914-10.96-17.987-16.26-.018-.014-3.124-2.809-9.32-8.387a182.046 182.046 0 0 0-10.387-8.667c.614-.462 1.396-.849 2.347-1.16a.54.54 0 0 1 .573.127l43.46 38.92a.866.866 0 0 0 .98.12l21.727-11.48c.209-.111.389-.078.54.1l3.033 3.5ZM134.2 153.393l-13.56 7.207c-1.196.636-1.764.276-1.707-1.08l.014-.3c.053-1.333.606-2.411 1.66-3.233 3.613-2.827 9.193-5 13.573-3.074.342.147.349.307.02.48ZM152.687 167.033l-18.674 9.887a.221.221 0 0 1-.145.02.222.222 0 0 1-.128-.073l-12.567-13.994a.22.22 0 0 1-.047-.088.22.22 0 0 1-.005-.099.238.238 0 0 1 .038-.093.233.233 0 0 1 .074-.066l15.054-7.967a.228.228 0 0 1 .24.02l16.193 12.073a.23.23 0 0 1 .087.199.221.221 0 0 1-.037.106.221.221 0 0 1-.083.075ZM158.907 171.227a200.28 200.28 0 0 0-20.36 10.966l-3.114-3.486c-.129-.147-.109-.265.06-.354l18.98-10.006a.542.542 0 0 1 .574.04l3.86 2.84Z"/></svg>